# xmcd
#
# Track frame offsets:
#	150
#	16985
#	37887
#	56510
#	79104
#	99707
#	124242
#	147695
#	161990
#	177232
#	196467
#	212717
#	233959
#	249415
#	269347
#
# Disc length: 3878 seconds
#
# Revision: 0
# Processed by: cddbd v1.4PL0 Copyright (c) Steve Scherf et al.
# Submitted via: EasyCDDAExtractor 4.5.2.1
#
DISCID=da0f240f
DTITLE=Varios - Bachatazos 2000 Pero... con clase!
DYEAR=2000
DGENRE=Bachata
TTITLE0=Palomita Blanca
TTITLE1=Penélope
TTITLE2=Huele a peligro
TTITLE3=Tanto deseo de ella
TTITLE4=Volveré
TTITLE5=Así fue
TTITLE6=Mi historia entre tus dedos
TTITLE7=Quien tiene tu amor (La Cartita)
TTITLE8=Basta ya (nuevos senderos)
TTITLE9=Tarde o temprano
TTITLE10=Allá tú
TTITLE11=Por el amor de una mujer
TTITLE12=Me estoy acostumbrando
TTITLE13=Arrepentida
TTITLE14=No speaki spanish (my love)
EXTD=
EXTT0=
EXTT1=
EXTT2=
EXTT3=
EXTT4=
EXTT5=
EXTT6=
EXTT7=
EXTT8=
EXTT9=
EXTT10=
EXTT11=
EXTT12=
EXTT13=
EXTT14=
PLAYORDER=
